<?xml version="1.0" encoding="UTF-8" standalone="no"?>
<!DOCTYPE svg PUBLIC "-//W3C//DTD SVG 1.1//EN"
 "http://www.w3.org/Graphics/SVG/1.1/DTD/svg11.dtd">
<!-- Generated by graphviz version 2.43.0 (0)
 -->
<!-- Title: wordcount02 Pages: 1 -->
<svg width="100%" height="100%" xmlns="http://www.w3.org/2000/svg" xmlns:xlink="http://www.w3.org/1999/xlink">
<script type="text/ecmascript"><![CDATA[
/**
 *  SVGPan library 1.2.2
 * ======================
 *
 * Given an unique existing element with id "viewport" (or when missing, the
 * first g-element), including the library into any SVG adds the following
 * capabilities:
 *
 *  - Mouse panning
 *  - Mouse zooming (using the wheel)
 *  - Object dragging
 *
 * You can configure the behaviour of the pan/zoom/drag with the variables
 * listed in the CONFIGURATION section of this file.
 *
 * Known issues:
 *
 *  - Zooming (while panning) on Safari has still some issues
 *
 * Releases:
 *
 * 1.2.2, Tue Aug 30 17:21:56 CEST 2011, Andrea Leofreddi
 *	- Fixed viewBox on root tag (#7)
 *	- Improved zoom speed (#2)
 *
 * 1.2.1, Mon Jul  4 00:33:18 CEST 2011, Andrea Leofreddi
 *	- Fixed a regression with mouse wheel (now working on Firefox 5)
 *	- Working with viewBox attribute (#4)
 *	- Added "use strict;" and fixed resulting warnings (#5)
 *	- Added configuration variables, dragging is disabled by default (#3)
 *
 * 1.2, Sat Mar 20 08:42:50 GMT 2010, Zeng Xiaohui
 *	Fixed a bug with browser mouse handler interaction
 *
 * 1.1, Wed Feb  3 17:39:33 GMT 2010, Zeng Xiaohui
 *	Updated the zoom code to support the mouse wheel on Safari/Chrome
 *
 * 1.0, Andrea Leofreddi
 *	First release
 *
 * This code is licensed under the following BSD license:
 *
 * Copyright 2009-2017 Andrea Leofreddi <a.leofreddi@vleo.net>. All rights reserved.
 *
 * Redistribution and use in source and binary forms, with or without modification, are
 * permitted provided that the following conditions are met:
 *
 *    1. Redistributions of source code must retain the above copyright
 *       notice, this list of conditions and the following disclaimer.
 *    2. Redistributions in binary form must reproduce the above copyright
 *       notice, this list of conditions and the following disclaimer in the
 *       documentation and/or other materials provided with the distribution.
 *    3. Neither the name of the copyright holder nor the names of its
 *       contributors may be used to endorse or promote products derived from
 *       this software without specific prior written permission.
 *
 * THIS SOFTWARE IS PROVIDED BY COPYRIGHT HOLDERS AND CONTRIBUTORS ''AS IS'' AND ANY EXPRESS
 * OR IMPLIED WARRANTIES, INCLUDING, BUT NOT LIMITED TO, THE IMPLIED WARRANTIES OF MERCHANTABILITY
 * AND FITNESS FOR A PARTICULAR PURPOSE ARE DISCLAIMED. IN NO EVENT SHALL COPYRIGHT HOLDERS OR
 * CONTRIBUTORS BE LIABLE FOR ANY DIRECT, INDIRECT, INCIDENTAL, SPECIAL, EXEMPLARY, OR
 * CONSEQUENTIAL DAMAGES (INCLUDING, BUT NOT LIMITED TO, PROCUREMENT OF SUBSTITUTE GOODS OR
 * SERVICES; LOSS OF USE, DATA, OR PROFITS; OR BUSINESS INTERRUPTION) HOWEVER CAUSED AND ON
 * ANY THEORY OF LIABILITY, WHETHER IN CONTRACT, STRICT LIABILITY, OR TORT (INCLUDING
 * NEGLIGENCE OR OTHERWISE) ARISING IN ANY WAY OUT OF THE USE OF THIS SOFTWARE, EVEN IF
 * ADVISED OF THE POSSIBILITY OF SUCH DAMAGE.
 *
 * The views and conclusions contained in the software and documentation are those of the
 * authors and should not be interpreted as representing official policies, either expressed
 * or implied, of Andrea Leofreddi.
 */

"use strict";

/// CONFIGURATION
/// ====>

var enablePan = 1; // 1 or 0: enable or disable panning (default enabled)
var enableZoom = 1; // 1 or 0: enable or disable zooming (default enabled)
var enableDrag = 0; // 1 or 0: enable or disable dragging (default disabled)
var zoomScale = 0.2; // Zoom sensitivity

/// <====
/// END OF CONFIGURATION

var root = document.documentElement;

var state = 'none', svgRoot = null, stateTarget, stateOrigin, stateTf;

setupHandlers(root);

/**
 * Register handlers
 */
function setupHandlers(root){
	setAttributes(root, {
		"onmouseup" : "handleMouseUp(evt)",
		"onmousedown" : "handleMouseDown(evt)",
		"onmousemove" : "handleMouseMove(evt)",
		//"onmouseout" : "handleMouseUp(evt)", // Decomment this to stop the pan functionality when dragging out of the SVG element
	});

	if(navigator.userAgent.toLowerCase().indexOf('webkit') >= 0)
		window.addEventListener('mousewheel', handleMouseWheel, false); // Chrome/Safari
	else
		window.addEventListener('DOMMouseScroll', handleMouseWheel, false); // Others
}

/**
 * Retrieves the root element for SVG manipulation. The element is then cached into the svgRoot global variable.
 */
function getRoot(root) {
	if(svgRoot == null) {
		var r = root.getElementById("viewport") ? root.getElementById("viewport") : root.documentElement, t = r;

		while(t != root) {
			if(t.getAttribute("viewBox")) {
				setCTM(r, t.getCTM());

				t.removeAttribute("viewBox");
			}

			t = t.parentNode;
		}

		svgRoot = r;
	}

	return svgRoot;
}

/**
 * Instance an SVGPoint object with given event coordinates.
 */
function getEventPoint(evt) {
	var p = root.createSVGPoint();

	p.x = evt.clientX;
	p.y = evt.clientY;

	return p;
}

/**
 * Sets the current transform matrix of an element.
 */
function setCTM(element, matrix) {
	var s = "matrix(" + matrix.a + "," + matrix.b + "," + matrix.c + "," + matrix.d + "," + matrix.e + "," + matrix.f + ")";

	element.setAttribute("transform", s);
}

/**
 * Dumps a matrix to a string (useful for debug).
 */
function dumpMatrix(matrix) {
	var s = "[ " + matrix.a + ", " + matrix.c + ", " + matrix.e + "\n  " + matrix.b + ", " + matrix.d + ", " + matrix.f + "\n  0, 0, 1 ]";

	return s;
}

/**
 * Sets attributes of an element.
 */
function setAttributes(element, attributes){
	for (var i in attributes)
		element.setAttributeNS(null, i, attributes[i]);
}

/**
 * Handle mouse wheel event.
 */
function handleMouseWheel(evt) {
	if(!enableZoom)
		return;

	if(evt.preventDefault)
		evt.preventDefault();

	evt.returnValue = false;

	var svgDoc = evt.target.ownerDocument;

	var delta;

	if(evt.wheelDelta)
		delta = evt.wheelDelta / 360; // Chrome/Safari
	else
		delta = evt.detail / -9; // Mozilla

	var z = Math.pow(1 + zoomScale, delta);

	var g = getRoot(svgDoc);
	
	var p = getEventPoint(evt);

	p = p.matrixTransform(g.getCTM().inverse());

	// Compute new scale matrix in current mouse position
	var k = root.createSVGMatrix().translate(p.x, p.y).scale(z).translate(-p.x, -p.y);

        setCTM(g, g.getCTM().multiply(k));

	if(typeof(stateTf) == "undefined")
		stateTf = g.getCTM().inverse();

	stateTf = stateTf.multiply(k.inverse());
}

/**
 * Handle mouse move event.
 */
function handleMouseMove(evt) {
	if(evt.preventDefault)
		evt.preventDefault();

	evt.returnValue = false;

	var svgDoc = evt.target.ownerDocument;

	var g = getRoot(svgDoc);

	if(state == 'pan' && enablePan) {
		// Pan mode
		var p = getEventPoint(evt).matrixTransform(stateTf);

		setCTM(g, stateTf.inverse().translate(p.x - stateOrigin.x, p.y - stateOrigin.y));
	} else if(state == 'drag' && enableDrag) {
		// Drag mode
		var p = getEventPoint(evt).matrixTransform(g.getCTM().inverse());

		setCTM(stateTarget, root.createSVGMatrix().translate(p.x - stateOrigin.x, p.y - stateOrigin.y).multiply(g.getCTM().inverse()).multiply(stateTarget.getCTM()));

		stateOrigin = p;
	}
}

/**
 * Handle click event.
 */
function handleMouseDown(evt) {
	if(evt.preventDefault)
		evt.preventDefault();

	evt.returnValue = false;

	var svgDoc = evt.target.ownerDocument;

	var g = getRoot(svgDoc);

	if(
		evt.target.tagName == "svg"
		|| !enableDrag // Pan anyway when drag is disabled and the user clicked on an element
	) {
		// Pan mode
		state = 'pan';

		stateTf = g.getCTM().inverse();

		stateOrigin = getEventPoint(evt).matrixTransform(stateTf);
	} else {
		// Drag mode
		state = 'drag';

		stateTarget = evt.target;

		stateTf = g.getCTM().inverse();

		stateOrigin = getEventPoint(evt).matrixTransform(stateTf);
	}
}

/**
 * Handle mouse button release event.
 */
function handleMouseUp(evt) {
	if(evt.preventDefault)
		evt.preventDefault();

	evt.returnValue = false;

	var svgDoc = evt.target.ownerDocument;

	if(state == 'pan' || state == 'drag') {
		// Quit pan mode
		state = '';
	}
}
]]></script><g id="viewport" transform="scale(0.5,0.5) translate(0,0)"><g id="graph0" class="graph" transform="scale(1 1) rotate(0) translate(4 1031)">
<title>wordcount02</title>
<polygon fill="white" stroke="transparent" points="-4,4 -4,-1031 1270,-1031 1270,4 -4,4"/>
<g id="clust1" class="cluster">
<title>cluster_L</title>
<polygon fill="none" stroke="black" points="8,-886 8,-1019 582,-1019 582,-886 8,-886"/>
</g>
<!-- File: wordcount02 -->
<g id="node1" class="node">
<title>File: wordcount02</title>
<g id="a_node1"><a xlink:title="wordcount02">
<polygon fill="#f8f8f8" stroke="black" points="574,-1011 16,-1011 16,-894 574,-894 574,-1011"/>
<text text-anchor="start" x="24" y="-994.2" font-family="Times,serif" font-size="16.00">File: wordcount02</text>
<text text-anchor="start" x="24" y="-976.2" font-family="Times,serif" font-size="16.00">Type: inuse_space</text>
<text text-anchor="start" x="24" y="-958.2" font-family="Times,serif" font-size="16.00">Time: Mar 7, 2023 at 11:04am (UTC)</text>
<text text-anchor="start" x="24" y="-940.2" font-family="Times,serif" font-size="16.00">Showing nodes accounting for 658.58kB, 100% of 658.58kB total</text>
<text text-anchor="start" x="24" y="-903.2" font-family="Times,serif" font-size="16.00">See https://git.io/JfYMW for how to read the graph</text>
</a>
</g>
</g>
<!-- N1 -->
<g id="node1" class="node">
<title>N1</title>
<g id="a_node1"><a xlink:title="main.readbyte (637.24kB)">
<polygon fill="#edd5d5" stroke="#b20100" points="771.5,-741 524.5,-741 524.5,-655 771.5,-655 771.5,-741"/>
<text text-anchor="middle" x="648" y="-717.8" font-family="Times,serif" font-size="24.00">main</text>
<text text-anchor="middle" x="648" y="-691.8" font-family="Times,serif" font-size="24.00">readbyte</text>
<text text-anchor="middle" x="648" y="-665.8" font-family="Times,serif" font-size="24.00">637.24kB (96.76%)</text>
</a>
</g>
</g>
<!-- NN1_0 -->
<g id="NN1_0" class="node">
<title>NN1_0</title>
<g id="a_NN1_0"><a xlink:title="637.24kB">
<polygon fill="#f8f8f8" stroke="black" points="675,-600 625,-600 621,-596 621,-564 671,-564 675,-568 675,-600"/>
<polyline fill="none" stroke="black" points="671,-596 621,-596 "/>
<polyline fill="none" stroke="black" points="671,-596 671,-564 "/>
<polyline fill="none" stroke="black" points="671,-596 675,-600 "/>
<text text-anchor="middle" x="648" y="-580.1" font-family="Times,serif" font-size="8.00">16B</text>
</a>
</g>
</g>
<!-- N1&#45;&gt;NN1_0 -->
<g id="edge1" class="edge">
<title>N1&#45;&gt;NN1_0</title>
<g id="a_edge1"><a xlink:title="637.24kB">
<path fill="none" stroke="black" d="M648,-654.87C648,-640.11 648,-623.91 648,-610.63"/>
<polygon fill="black" stroke="black" points="651.5,-610.27 648,-600.27 644.5,-610.27 651.5,-610.27"/>
</a>
</g>
<g id="a_edge1&#45;label"><a xlink:title="637.24kB">
<text text-anchor="middle" x="684.5" y="-625.8" font-family="Times,serif" font-size="14.00"> 637.24kB</text>
</a>
</g>
</g>
<!-- N2 -->
<g id="node2" class="node">
<title>N2</title>
<g id="a_node2"><a xlink:title="runtime.main (637.24kB)">
<polygon fill="#edd5d5" stroke="#b20100" points="704,-970.5 592,-970.5 592,-934.5 704,-934.5 704,-970.5"/>
<text text-anchor="middle" x="648" y="-959.6" font-family="Times,serif" font-size="8.00">runtime</text>
<text text-anchor="middle" x="648" y="-950.6" font-family="Times,serif" font-size="8.00">main</text>
<text text-anchor="middle" x="648" y="-941.6" font-family="Times,serif" font-size="8.00">0 of 637.24kB (96.76%)</text>
</a>
</g>
</g>
<!-- N10 -->
<g id="node10" class="node">
<title>N10</title>
<g id="a_node10"><a xlink:title="main.main (637.24kB)">
<polygon fill="#edd5d5" stroke="#b20100" points="704,-843 592,-843 592,-807 704,-807 704,-843"/>
<text text-anchor="middle" x="648" y="-832.1" font-family="Times,serif" font-size="8.00">main</text>
<text text-anchor="middle" x="648" y="-823.1" font-family="Times,serif" font-size="8.00">main</text>
<text text-anchor="middle" x="648" y="-814.1" font-family="Times,serif" font-size="8.00">0 of 637.24kB (96.76%)</text>
</a>
</g>
</g>
<!-- N2&#45;&gt;N10 -->
<g id="edge7" class="edge">
<title>N2&#45;&gt;N10</title>
<g id="a_edge7"><a xlink:title="runtime.main &#45;&gt; main.main (637.24kB)">
<path fill="none" stroke="#b20100" stroke-width="5" d="M648,-934.31C648,-913.49 648,-878.16 648,-853.53"/>
<polygon fill="#b20100" stroke="#b20100" stroke-width="5" points="652.38,-853.38 648,-843.38 643.63,-853.38 652.38,-853.38"/>
</a>
</g>
<g id="a_edge7&#45;label"><a xlink:title="runtime.main &#45;&gt; main.main (637.24kB)">
<text text-anchor="middle" x="684.5" y="-864.8" font-family="Times,serif" font-size="14.00"> 637.24kB</text>
</a>
</g>
</g>
<!-- N3 -->
<g id="node3" class="node">
<title>N3</title>
<g id="a_node3"><a xlink:title="github.com/pkg/profile.Start.func11 (8.09kB)">
<polygon fill="#edeceb" stroke="#b2afa7" points="827.5,-984 722.5,-984 722.5,-921 827.5,-921 827.5,-984"/>
<text text-anchor="middle" x="775" y="-972" font-family="Times,serif" font-size="10.00">profile</text>
<text text-anchor="middle" x="775" y="-961" font-family="Times,serif" font-size="10.00">Start</text>
<text text-anchor="middle" x="775" y="-950" font-family="Times,serif" font-size="10.00">func11</text>
<text text-anchor="middle" x="775" y="-939" font-family="Times,serif" font-size="10.00">4.05kB (0.61%)</text>
<text text-anchor="middle" x="775" y="-928" font-family="Times,serif" font-size="10.00">of 8.09kB (1.23%)</text>
</a>
</g>
</g>
<!-- NN3_0 -->
<g id="NN3_0" class="node">
<title>NN3_0</title>
<g id="a_NN3_0"><a xlink:title="4.05kB">
<polygon fill="#f8f8f8" stroke="black" points="802,-843 752,-843 748,-839 748,-807 798,-807 802,-811 802,-843"/>
<polyline fill="none" stroke="black" points="798,-839 748,-839 "/>
<polyline fill="none" stroke="black" points="798,-839 798,-807 "/>
<polyline fill="none" stroke="black" points="798,-839 802,-843 "/>
<text text-anchor="middle" x="775" y="-823.1" font-family="Times,serif" font-size="8.00">96B</text>
</a>
</g>
</g>
<!-- N3&#45;&gt;NN3_0 -->
<g id="edge2" class="edge">
<title>N3&#45;&gt;NN3_0</title>
<g id="a_edge2"><a xlink:title="4.05kB">
<path fill="none" stroke="black" d="M775,-920.8C775,-900.23 775,-873.37 775,-853.5"/>
<polygon fill="black" stroke="black" points="778.5,-853.26 775,-843.26 771.5,-853.26 778.5,-853.26"/>
</a>
</g>
<g id="a_edge2&#45;label"><a xlink:title="4.05kB">
<text text-anchor="middle" x="802.5" y="-864.8" font-family="Times,serif" font-size="14.00"> 4.05kB</text>
</a>
</g>
</g>
<!-- N11 -->
<g id="node11" class="node">
<title>N11</title>
<g id="a_node11"><a xlink:title="os/signal.Notify (4.05kB)">
<polygon fill="#edecec" stroke="#b2b1ad" points="893,-716 797,-716 797,-680 893,-680 893,-716"/>
<text text-anchor="middle" x="845" y="-705.1" font-family="Times,serif" font-size="8.00">signal</text>
<text text-anchor="middle" x="845" y="-696.1" font-family="Times,serif" font-size="8.00">Notify</text>
<text text-anchor="middle" x="845" y="-687.1" font-family="Times,serif" font-size="8.00">0 of 4.05kB (0.61%)</text>
</a>
</g>
</g>
<!-- N3&#45;&gt;N11 -->
<g id="edge22" class="edge">
<title>N3&#45;&gt;N11</title>
<g id="a_edge22"><a xlink:title="github.com/pkg/profile.Start.func11 &#45;&gt; os/signal.Notify (4.05kB)">
<path fill="none" stroke="#b2b1ad" d="M803.9,-920.8C814.28,-907.93 824.93,-892.2 831,-876 849.82,-825.78 849.53,-762.06 847.4,-726.39"/>
<polygon fill="#b2b1ad" stroke="#b2b1ad" points="850.89,-726 846.71,-716.26 843.9,-726.48 850.89,-726"/>
</a>
</g>
<g id="a_edge22&#45;label"><a xlink:title="github.com/pkg/profile.Start.func11 &#45;&gt; os/signal.Notify (4.05kB)">
<text text-anchor="middle" x="873.5" y="-821.3" font-family="Times,serif" font-size="14.00"> 4.05kB</text>
</a>
</g>
</g>
<!-- N4 -->
<g id="node4" class="node">
<title>N4</title>
<g id="a_node4"><a xlink:title="runtime.allocm (9.04kB)">
<polygon fill="#edeceb" stroke="#b2afa6" points="1187,-128 1095,-128 1095,-87 1187,-87 1187,-128"/>
<text text-anchor="middle" x="1141" y="-116" font-family="Times,serif" font-size="10.00">runtime</text>
<text text-anchor="middle" x="1141" y="-105" font-family="Times,serif" font-size="10.00">allocm</text>
<text text-anchor="middle" x="1141" y="-94" font-family="Times,serif" font-size="10.00">9.04kB (1.37%)</text>
</a>
</g>
</g>
<!-- NN4_0 -->
<g id="NN4_0" class="node">
<title>NN4_0</title>
<g id="a_NN4_0"><a xlink:title="9.04kB">
<polygon fill="#f8f8f8" stroke="black" points="1168,-36 1118,-36 1114,-32 1114,0 1164,0 1168,-4 1168,-36"/>
<polyline fill="none" stroke="black" points="1164,-32 1114,-32 "/>
<polyline fill="none" stroke="black" points="1164,-32 1164,0 "/>
<polyline fill="none" stroke="black" points="1164,-32 1168,-36 "/>
<text text-anchor="middle" x="1141" y="-16.1" font-family="Times,serif" font-size="8.00">1kB</text>
</a>
</g>
</g>
<!-- N4&#45;&gt;NN4_0 -->
<g id="edge3" class="edge">
<title>N4&#45;&gt;NN4_0</title>
<g id="a_edge3"><a xlink:title="9.04kB">
<path fill="none" stroke="black" d="M1141,-86.64C1141,-74.75 1141,-59.45 1141,-46.41"/>
<polygon fill="black" stroke="black" points="1144.5,-46.12 1141,-36.12 1137.5,-46.12 1144.5,-46.12"/>
</a>
</g>
<g id="a_edge3&#45;label"><a xlink:title="9.04kB">
<text text-anchor="middle" x="1168.5" y="-57.8" font-family="Times,serif" font-size="14.00"> 9.04kB</text>
</a>
</g>
</g>
<!-- N5 -->
<g id="node5" class="node">
<title>N5</title>
<g id="a_node5"><a xlink:title="runtime.systemstack (8.73kB)">
<polygon fill="#edeceb" stroke="#b2afa6" points="1058,-600 962,-600 962,-564 1058,-564 1058,-600"/>
<text text-anchor="middle" x="1010" y="-589.1" font-family="Times,serif" font-size="8.00">runtime</text>
<text text-anchor="middle" x="1010" y="-580.1" font-family="Times,serif" font-size="8.00">systemstack</text>
<text text-anchor="middle" x="1010" y="-571.1" font-family="Times,serif" font-size="8.00">0 of 8.73kB (1.33%)</text>
</a>
</g>
</g>
<!-- N14 -->
<g id="node14" class="node">
<title>N14</title>
<g id="a_node14"><a xlink:title="runtime.entersyscallblock_handoff (4.52kB)">
<polygon fill="#edecec" stroke="#b2b1ac" points="1144.5,-490 1025.5,-490 1025.5,-454 1144.5,-454 1144.5,-490"/>
<text text-anchor="middle" x="1085" y="-479.1" font-family="Times,serif" font-size="8.00">runtime</text>
<text text-anchor="middle" x="1085" y="-470.1" font-family="Times,serif" font-size="8.00">entersyscallblock_handoff</text>
<text text-anchor="middle" x="1085" y="-461.1" font-family="Times,serif" font-size="8.00">0 of 4.52kB (0.69%)</text>
</a>
</g>
</g>
<!-- N5&#45;&gt;N14 -->
<g id="edge17" class="edge">
<title>N5&#45;&gt;N14</title>
<g id="a_edge17"><a xlink:title="runtime.systemstack &#45;&gt; runtime.entersyscallblock_handoff (4.52kB)">
<path fill="none" stroke="#b2b1ac" d="M1023.19,-563.67C1028.21,-556.96 1033.95,-549.17 1039,-542 1048.97,-527.85 1059.72,-511.77 1068.32,-498.69"/>
<polygon fill="#b2b1ac" stroke="#b2b1ac" points="1071.35,-500.46 1073.9,-490.18 1065.49,-496.63 1071.35,-500.46"/>
</a>
</g>
<g id="a_edge17&#45;label"><a xlink:title="runtime.systemstack &#45;&gt; runtime.entersyscallblock_handoff (4.52kB)">
<text text-anchor="middle" x="1085.5" y="-523.3" font-family="Times,serif" font-size="14.00"> 4.52kB</text>
</a>
</g>
</g>
<!-- N19 -->
<g id="node19" class="node">
<title>N19</title>
<g id="a_node19"><a xlink:title="runtime.newproc.func1 (4.21kB)">
<polygon fill="#edecec" stroke="#b2b1ac" points="1007,-494 911,-494 911,-450 1007,-450 1007,-494"/>
<text text-anchor="middle" x="959" y="-483.6" font-family="Times,serif" font-size="8.00">runtime</text>
<text text-anchor="middle" x="959" y="-474.6" font-family="Times,serif" font-size="8.00">newproc</text>
<text text-anchor="middle" x="959" y="-465.6" font-family="Times,serif" font-size="8.00">func1</text>
<text text-anchor="middle" x="959" y="-456.6" font-family="Times,serif" font-size="8.00">0 of 4.21kB (0.64%)</text>
</a>
</g>
</g>
<!-- N5&#45;&gt;N19 -->
<g id="edge21" class="edge">
<title>N5&#45;&gt;N19</title>
<g id="a_edge21"><a xlink:title="runtime.systemstack &#45;&gt; runtime.newproc.func1 (4.21kB)">
<path fill="none" stroke="#b2b1ac" d="M997.16,-563.68C992.63,-557.1 987.74,-549.41 984,-542 977.9,-529.92 972.55,-515.98 968.39,-503.81"/>
<polygon fill="#b2b1ac" stroke="#b2b1ac" points="971.64,-502.47 965.18,-494.07 964.99,-504.67 971.64,-502.47"/>
</a>
</g>
<g id="a_edge21&#45;label"><a xlink:title="runtime.systemstack &#45;&gt; runtime.newproc.func1 (4.21kB)">
<text text-anchor="middle" x="1011.5" y="-523.3" font-family="Times,serif" font-size="14.00"> 4.21kB</text>
</a>
</g>
</g>
<!-- N6 -->
<g id="node6" class="node">
<title>N6</title>
<g id="a_node6"><a xlink:title="runtime.startm (9.04kB)">
<polygon fill="#edeceb" stroke="#b2afa6" points="1189,-304.5 1093,-304.5 1093,-268.5 1189,-268.5 1189,-304.5"/>
<text text-anchor="middle" x="1141" y="-293.6" font-family="Times,serif" font-size="8.00">runtime</text>
<text text-anchor="middle" x="1141" y="-284.6" font-family="Times,serif" font-size="8.00">startm</text>
<text text-anchor="middle" x="1141" y="-275.6" font-family="Times,serif" font-size="8.00">0 of 9.04kB (1.37%)</text>
</a>
</g>
</g>
<!-- N18 -->
<g id="node18" class="node">
<title>N18</title>
<g id="a_node18"><a xlink:title="runtime.newm (9.04kB)">
<polygon fill="#edeceb" stroke="#b2afa6" points="1189,-215 1093,-215 1093,-179 1189,-179 1189,-215"/>
<text text-anchor="middle" x="1141" y="-204.1" font-family="Times,serif" font-size="8.00">runtime</text>
<text text-anchor="middle" x="1141" y="-195.1" font-family="Times,serif" font-size="8.00">newm</text>
<text text-anchor="middle" x="1141" y="-186.1" font-family="Times,serif" font-size="8.00">0 of 9.04kB (1.37%)</text>
</a>
</g>
</g>
<!-- N6&#45;&gt;N18 -->
<g id="edge9" class="edge">
<title>N6&#45;&gt;N18</title>
<g id="a_edge9"><a xlink:title="runtime.startm &#45;&gt; runtime.newm (9.04kB)">
<path fill="none" stroke="#b2afa6" d="M1141,-268.21C1141,-255.99 1141,-239.35 1141,-225.34"/>
<polygon fill="#b2afa6" stroke="#b2afa6" points="1144.5,-225.25 1141,-215.25 1137.5,-225.25 1144.5,-225.25"/>
</a>
</g>
<g id="a_edge9&#45;label"><a xlink:title="runtime.startm &#45;&gt; runtime.newm (9.04kB)">
<text text-anchor="middle" x="1168.5" y="-236.8" font-family="Times,serif" font-size="14.00"> 9.04kB</text>
</a>
</g>
</g>
<!-- N7 -->
<g id="node7" class="node">
<title>N7</title>
<g id="a_node7"><a xlink:title="runtime.malg (4.21kB)">
<polygon fill="#edecec" stroke="#b2b1ac" points="1005,-307 913,-307 913,-266 1005,-266 1005,-307"/>
<text text-anchor="middle" x="959" y="-295" font-family="Times,serif" font-size="10.00">runtime</text>
<text text-anchor="middle" x="959" y="-284" font-family="Times,serif" font-size="10.00">malg</text>
<text text-anchor="middle" x="959" y="-273" font-family="Times,serif" font-size="10.00">4.21kB (0.64%)</text>
</a>
</g>
</g>
<!-- NN7_0 -->
<g id="NN7_0" class="node">
<title>NN7_0</title>
<g id="a_NN7_0"><a xlink:title="4.21kB">
<polygon fill="#f8f8f8" stroke="black" points="986,-215 936,-215 932,-211 932,-179 982,-179 986,-183 986,-215"/>
<polyline fill="none" stroke="black" points="982,-211 932,-211 "/>
<polyline fill="none" stroke="black" points="982,-211 982,-179 "/>
<polyline fill="none" stroke="black" points="982,-211 986,-215 "/>
<text text-anchor="middle" x="959" y="-195.1" font-family="Times,serif" font-size="8.00">416B</text>
</a>
</g>
</g>
<!-- N7&#45;&gt;NN7_0 -->
<g id="edge4" class="edge">
<title>N7&#45;&gt;NN7_0</title>
<g id="a_edge4"><a xlink:title="4.21kB">
<path fill="none" stroke="black" d="M959,-265.64C959,-253.75 959,-238.45 959,-225.41"/>
<polygon fill="black" stroke="black" points="962.5,-225.12 959,-215.12 955.5,-225.12 962.5,-225.12"/>
</a>
</g>
<g id="a_edge4&#45;label"><a xlink:title="4.21kB">
<text text-anchor="middle" x="986.5" y="-236.8" font-family="Times,serif" font-size="14.00"> 4.21kB</text>
</a>
</g>
</g>
<!-- N8 -->
<g id="node8" class="node">
<title>N8</title>
<g id="a_node8"><a xlink:title="os/signal.signal_enable (4.05kB)">
<polygon fill="#edecec" stroke="#b2b1ad" points="891,-399 799,-399 799,-358 891,-358 891,-399"/>
<text text-anchor="middle" x="845" y="-387" font-family="Times,serif" font-size="10.00">signal</text>
<text text-anchor="middle" x="845" y="-376" font-family="Times,serif" font-size="10.00">signal_enable</text>
<text text-anchor="middle" x="845" y="-365" font-family="Times,serif" font-size="10.00">4.05kB (0.61%)</text>
</a>
</g>
</g>
<!-- NN8_0 -->
<g id="NN8_0" class="node">
<title>NN8_0</title>
<g id="a_NN8_0"><a xlink:title="4.05kB">
<polygon fill="#f8f8f8" stroke="black" points="872,-304.5 822,-304.5 818,-300.5 818,-268.5 868,-268.5 872,-272.5 872,-304.5"/>
<polyline fill="none" stroke="black" points="868,-300.5 818,-300.5 "/>
<polyline fill="none" stroke="black" points="868,-300.5 868,-268.5 "/>
<polyline fill="none" stroke="black" points="868,-300.5 872,-304.5 "/>
<text text-anchor="middle" x="845" y="-284.6" font-family="Times,serif" font-size="8.00">96B</text>
</a>
</g>
</g>
<!-- N8&#45;&gt;NN8_0 -->
<g id="edge5" class="edge">
<title>N8&#45;&gt;NN8_0</title>
<g id="a_edge5"><a xlink:title="4.05kB">
<path fill="none" stroke="black" d="M845,-357.97C845,-345.28 845,-328.56 845,-314.6"/>
<polygon fill="black" stroke="black" points="848.5,-314.56 845,-304.56 841.5,-314.56 848.5,-314.56"/>
</a>
</g>
<g id="a_edge5&#45;label"><a xlink:title="4.05kB">
<text text-anchor="middle" x="872.5" y="-328.8" font-family="Times,serif" font-size="14.00"> 4.05kB</text>
</a>
</g>
</g>
<!-- N9 -->
<g id="node9" class="node">
<title>N9</title>
<g id="a_node9"><a xlink:title="runtime.mstart (4.52kB)">
<polygon fill="#edecec" stroke="#b2b1ac" points="1259,-970.5 1163,-970.5 1163,-934.5 1259,-934.5 1259,-970.5"/>
<text text-anchor="middle" x="1211" y="-959.6" font-family="Times,serif" font-size="8.00">runtime</text>
<text text-anchor="middle" x="1211" y="-950.6" font-family="Times,serif" font-size="8.00">mstart</text>
<text text-anchor="middle" x="1211" y="-941.6" font-family="Times,serif" font-size="8.00">0 of 4.52kB (0.69%)</text>
</a>
</g>
</g>
<!-- N16 -->
<g id="node16" class="node">
<title>N16</title>
<g id="a_node16"><a xlink:title="runtime.mstart0 (4.52kB)">
<polygon fill="#edecec" stroke="#b2b1ac" points="1259,-843 1163,-843 1163,-807 1259,-807 1259,-843"/>
<text text-anchor="middle" x="1211" y="-832.1" font-family="Times,serif" font-size="8.00">runtime</text>
<text text-anchor="middle" x="1211" y="-823.1" font-family="Times,serif" font-size="8.00">mstart0</text>
<text text-anchor="middle" x="1211" y="-814.1" font-family="Times,serif" font-size="8.00">0 of 4.52kB (0.69%)</text>
</a>
</g>
</g>
<!-- N9&#45;&gt;N16 -->
<g id="edge12" class="edge">
<title>N9&#45;&gt;N16</title>
<g id="a_edge12"><a xlink:title="runtime.mstart &#45;&gt; runtime.mstart0 (4.52kB)">
<path fill="none" stroke="#b2b1ac" d="M1211,-934.31C1211,-913.49 1211,-878.16 1211,-853.53"/>
<polygon fill="#b2b1ac" stroke="#b2b1ac" points="1214.5,-853.38 1211,-843.38 1207.5,-853.38 1214.5,-853.38"/>
</a>
</g>
<g id="a_edge12&#45;label"><a xlink:title="runtime.mstart &#45;&gt; runtime.mstart0 (4.52kB)">
<text text-anchor="middle" x="1238.5" y="-864.8" font-family="Times,serif" font-size="14.00"> 4.52kB</text>
</a>
</g>
</g>
<!-- N10&#45;&gt;N1 -->
<g id="edge6" class="edge">
<title>N10&#45;&gt;N1</title>
<g id="a_edge6"><a xlink:title="main.main &#45;&gt; main.readbyte (637.24kB)">
<path fill="none" stroke="#b20100" stroke-width="5" d="M648,-806.88C648,-792.53 648,-771.26 648,-751.39"/>
<polygon fill="#b20100" stroke="#b20100" stroke-width="5" points="652.38,-751.17 648,-741.17 643.63,-751.17 652.38,-751.17"/>
</a>
</g>
<g id="a_edge6&#45;label"><a xlink:title="main.main &#45;&gt; main.readbyte (637.24kB)">
<text text-anchor="middle" x="684.5" y="-777.8" font-family="Times,serif" font-size="14.00"> 637.24kB</text>
<text text-anchor="middle" x="684.5" y="-762.8" font-family="Times,serif" font-size="14.00"> (inline)</text>
</a>
</g>
</g>
<!-- N12 -->
<g id="node12" class="node">
<title>N12</title>
<g id="a_node12"><a xlink:title="os/signal.Notify.func1 (4.05kB)">
<polygon fill="#edecec" stroke="#b2b1ad" points="893,-604 797,-604 797,-560 893,-560 893,-604"/>
<text text-anchor="middle" x="845" y="-593.6" font-family="Times,serif" font-size="8.00">signal</text>
<text text-anchor="middle" x="845" y="-584.6" font-family="Times,serif" font-size="8.00">Notify</text>
<text text-anchor="middle" x="845" y="-575.6" font-family="Times,serif" font-size="8.00">func1</text>
<text text-anchor="middle" x="845" y="-566.6" font-family="Times,serif" font-size="8.00">0 of 4.05kB (0.61%)</text>
</a>
</g>
</g>
<!-- N11&#45;&gt;N12 -->
<g id="edge23" class="edge">
<title>N11&#45;&gt;N12</title>
<g id="a_edge23"><a xlink:title="os/signal.Notify &#45;&gt; os/signal.Notify.func1 (4.05kB)">
<path fill="none" stroke="#b2b1ad" d="M845,-679.69C845,-662.42 845,-635.51 845,-614.46"/>
<polygon fill="#b2b1ad" stroke="#b2b1ad" points="848.5,-614.37 845,-604.37 841.5,-614.37 848.5,-614.37"/>
</a>
</g>
<g id="a_edge23&#45;label"><a xlink:title="os/signal.Notify &#45;&gt; os/signal.Notify.func1 (4.05kB)">
<text text-anchor="middle" x="872.5" y="-625.8" font-family="Times,serif" font-size="14.00"> 4.05kB</text>
</a>
</g>
</g>
<!-- N13 -->
<g id="node13" class="node">
<title>N13</title>
<g id="a_node13"><a xlink:title="os/signal.enableSignal (4.05kB)">
<polygon fill="#edecec" stroke="#b2b1ad" points="893,-490 797,-490 797,-454 893,-454 893,-490"/>
<text text-anchor="middle" x="845" y="-479.1" font-family="Times,serif" font-size="8.00">signal</text>
<text text-anchor="middle" x="845" y="-470.1" font-family="Times,serif" font-size="8.00">enableSignal</text>
<text text-anchor="middle" x="845" y="-461.1" font-family="Times,serif" font-size="8.00">0 of 4.05kB (0.61%)</text>
</a>
</g>
</g>
<!-- N12&#45;&gt;N13 -->
<g id="edge24" class="edge">
<title>N12&#45;&gt;N13</title>
<g id="a_edge24"><a xlink:title="os/signal.Notify.func1 &#45;&gt; os/signal.enableSignal (4.05kB)">
<path fill="none" stroke="#b2b1ad" d="M845,-559.92C845,-542.88 845,-518.78 845,-500.27"/>
<polygon fill="#b2b1ad" stroke="#b2b1ad" points="848.5,-500.12 845,-490.12 841.5,-500.12 848.5,-500.12"/>
</a>
</g>
<g id="a_edge24&#45;label"><a xlink:title="os/signal.Notify.func1 &#45;&gt; os/signal.enableSignal (4.05kB)">
<text text-anchor="middle" x="872.5" y="-530.8" font-family="Times,serif" font-size="14.00"> 4.05kB</text>
<text text-anchor="middle" x="872.5" y="-515.8" font-family="Times,serif" font-size="14.00"> (inline)</text>
</a>
</g>
</g>
<!-- N13&#45;&gt;N8 -->
<g id="edge25" class="edge">
<title>N13&#45;&gt;N8</title>
<g id="a_edge25"><a xlink:title="os/signal.enableSignal &#45;&gt; os/signal.signal_enable (4.05kB)">
<path fill="none" stroke="#b2b1ad" d="M845,-453.79C845,-441.29 845,-424.06 845,-409.35"/>
<polygon fill="#b2b1ad" stroke="#b2b1ad" points="848.5,-409.17 845,-399.17 841.5,-409.17 848.5,-409.17"/>
</a>
</g>
<g id="a_edge25&#45;label"><a xlink:title="os/signal.enableSignal &#45;&gt; os/signal.signal_enable (4.05kB)">
<text text-anchor="middle" x="872.5" y="-420.8" font-family="Times,serif" font-size="14.00"> 4.05kB</text>
</a>
</g>
</g>
<!-- N15 -->
<g id="node15" class="node">
<title>N15</title>
<g id="a_node15"><a xlink:title="runtime.handoffp (4.52kB)">
<polygon fill="#edecec" stroke="#b2b1ac" points="1140,-396.5 1044,-396.5 1044,-360.5 1140,-360.5 1140,-396.5"/>
<text text-anchor="middle" x="1092" y="-385.6" font-family="Times,serif" font-size="8.00">runtime</text>
<text text-anchor="middle" x="1092" y="-376.6" font-family="Times,serif" font-size="8.00">handoffp</text>
<text text-anchor="middle" x="1092" y="-367.6" font-family="Times,serif" font-size="8.00">0 of 4.52kB (0.69%)</text>
</a>
</g>
</g>
<!-- N14&#45;&gt;N15 -->
<g id="edge10" class="edge">
<title>N14&#45;&gt;N15</title>
<g id="a_edge10"><a xlink:title="runtime.entersyscallblock_handoff &#45;&gt; runtime.handoffp (4.52kB)">
<path fill="none" stroke="#b2b1ac" d="M1086.32,-453.79C1087.32,-440.63 1088.73,-422.21 1089.9,-407.01"/>
<polygon fill="#b2b1ac" stroke="#b2b1ac" points="1093.42,-406.87 1090.69,-396.63 1086.44,-406.34 1093.42,-406.87"/>
</a>
</g>
<g id="a_edge10&#45;label"><a xlink:title="runtime.entersyscallblock_handoff &#45;&gt; runtime.handoffp (4.52kB)">
<text text-anchor="middle" x="1116.5" y="-420.8" font-family="Times,serif" font-size="14.00"> 4.52kB</text>
</a>
</g>
</g>
<!-- N15&#45;&gt;N6 -->
<g id="edge11" class="edge">
<title>N15&#45;&gt;N6</title>
<g id="a_edge11"><a xlink:title="runtime.handoffp &#45;&gt; runtime.startm (4.52kB)">
<path fill="none" stroke="#b2b1ac" d="M1101.45,-360.15C1108.63,-346.95 1118.64,-328.57 1126.79,-313.6"/>
<polygon fill="#b2b1ac" stroke="#b2b1ac" points="1129.87,-315.26 1131.58,-304.8 1123.73,-311.91 1129.87,-315.26"/>
</a>
</g>
<g id="a_edge11&#45;label"><a xlink:title="runtime.handoffp &#45;&gt; runtime.startm (4.52kB)">
<text text-anchor="middle" x="1146.5" y="-328.8" font-family="Times,serif" font-size="14.00"> 4.52kB</text>
</a>
</g>
</g>
<!-- N17 -->
<g id="node17" class="node">
<title>N17</title>
<g id="a_node17"><a xlink:title="runtime.mstart1 (4.52kB)">
<polygon fill="#edecec" stroke="#b2b1ac" points="1259,-716 1163,-716 1163,-680 1259,-680 1259,-716"/>
<text text-anchor="middle" x="1211" y="-705.1" font-family="Times,serif" font-size="8.00">runtime</text>
<text text-anchor="middle" x="1211" y="-696.1" font-family="Times,serif" font-size="8.00">mstart1</text>
<text text-anchor="middle" x="1211" y="-687.1" font-family="Times,serif" font-size="8.00">0 of 4.52kB (0.69%)</text>
</a>
</g>
</g>
<!-- N16&#45;&gt;N17 -->
<g id="edge13" class="edge">
<title>N16&#45;&gt;N17</title>
<g id="a_edge13"><a xlink:title="runtime.mstart0 &#45;&gt; runtime.mstart1 (4.52kB)">
<path fill="none" stroke="#b2b1ac" d="M1211,-806.88C1211,-786.15 1211,-750.95 1211,-726.42"/>
<polygon fill="#b2b1ac" stroke="#b2b1ac" points="1214.5,-726.31 1211,-716.31 1207.5,-726.31 1214.5,-726.31"/>
</a>
</g>
<g id="a_edge13&#45;label"><a xlink:title="runtime.mstart0 &#45;&gt; runtime.mstart1 (4.52kB)">
<text text-anchor="middle" x="1238.5" y="-770.3" font-family="Times,serif" font-size="14.00"> 4.52kB</text>
</a>
</g>
</g>
<!-- N22 -->
<g id="node22" class="node">
<title>N22</title>
<g id="a_node22"><a xlink:title="runtime.schedule (4.52kB)">
<polygon fill="#edecec" stroke="#b2b1ac" points="1259,-600 1163,-600 1163,-564 1259,-564 1259,-600"/>
<text text-anchor="middle" x="1211" y="-589.1" font-family="Times,serif" font-size="8.00">runtime</text>
<text text-anchor="middle" x="1211" y="-580.1" font-family="Times,serif" font-size="8.00">schedule</text>
<text text-anchor="middle" x="1211" y="-571.1" font-family="Times,serif" font-size="8.00">0 of 4.52kB (0.69%)</text>
</a>
</g>
</g>
<!-- N17&#45;&gt;N22 -->
<g id="edge14" class="edge">
<title>N17&#45;&gt;N22</title>
<g id="a_edge14"><a xlink:title="runtime.mstart1 &#45;&gt; runtime.schedule (4.52kB)">
<path fill="none" stroke="#b2b1ac" d="M1211,-679.69C1211,-661.25 1211,-631.82 1211,-610.26"/>
<polygon fill="#b2b1ac" stroke="#b2b1ac" points="1214.5,-610.1 1211,-600.1 1207.5,-610.1 1214.5,-610.1"/>
</a>
</g>
<g id="a_edge14&#45;label"><a xlink:title="runtime.mstart1 &#45;&gt; runtime.schedule (4.52kB)">
<text text-anchor="middle" x="1238.5" y="-625.8" font-family="Times,serif" font-size="14.00"> 4.52kB</text>
</a>
</g>
</g>
<!-- N18&#45;&gt;N4 -->
<g id="edge8" class="edge">
<title>N18&#45;&gt;N4</title>
<g id="a_edge8"><a xlink:title="runtime.newm &#45;&gt; runtime.allocm (9.04kB)">
<path fill="none" stroke="#b2afa6" d="M1141,-178.71C1141,-167.24 1141,-151.87 1141,-138.44"/>
<polygon fill="#b2afa6" stroke="#b2afa6" points="1144.5,-138.19 1141,-128.19 1137.5,-138.19 1144.5,-138.19"/>
</a>
</g>
<g id="a_edge8&#45;label"><a xlink:title="runtime.newm &#45;&gt; runtime.allocm (9.04kB)">
<text text-anchor="middle" x="1168.5" y="-149.8" font-family="Times,serif" font-size="14.00"> 9.04kB</text>
</a>
</g>
</g>
<!-- N20 -->
<g id="node20" class="node">
<title>N20</title>
<g id="a_node20"><a xlink:title="runtime.newproc1 (4.21kB)">
<polygon fill="#edecec" stroke="#b2b1ac" points="1007,-396.5 911,-396.5 911,-360.5 1007,-360.5 1007,-396.5"/>
<text text-anchor="middle" x="959" y="-385.6" font-family="Times,serif" font-size="8.00">runtime</text>
<text text-anchor="middle" x="959" y="-376.6" font-family="Times,serif" font-size="8.00">newproc1</text>
<text text-anchor="middle" x="959" y="-367.6" font-family="Times,serif" font-size="8.00">0 of 4.21kB (0.64%)</text>
</a>
</g>
</g>
<!-- N19&#45;&gt;N20 -->
<g id="edge19" class="edge">
<title>N19&#45;&gt;N20</title>
<g id="a_edge19"><a xlink:title="runtime.newproc.func1 &#45;&gt; runtime.newproc1 (4.21kB)">
<path fill="none" stroke="#b2b1ac" d="M959,-449.78C959,-437.03 959,-420.68 959,-406.95"/>
<polygon fill="#b2b1ac" stroke="#b2b1ac" points="962.5,-406.63 959,-396.63 955.5,-406.63 962.5,-406.63"/>
</a>
</g>
<g id="a_edge19&#45;label"><a xlink:title="runtime.newproc.func1 &#45;&gt; runtime.newproc1 (4.21kB)">
<text text-anchor="middle" x="986.5" y="-420.8" font-family="Times,serif" font-size="14.00"> 4.21kB</text>
</a>
</g>
</g>
<!-- N20&#45;&gt;N7 -->
<g id="edge20" class="edge">
<title>N20&#45;&gt;N7</title>
<g id="a_edge20"><a xlink:title="runtime.newproc1 &#45;&gt; runtime.malg (4.21kB)">
<path fill="none" stroke="#b2b1ac" d="M959,-360.15C959,-348.1 959,-331.73 959,-317.59"/>
<polygon fill="#b2b1ac" stroke="#b2b1ac" points="962.5,-317.31 959,-307.31 955.5,-317.31 962.5,-317.31"/>
</a>
</g>
<g id="a_edge20&#45;label"><a xlink:title="runtime.newproc1 &#45;&gt; runtime.malg (4.21kB)">
<text text-anchor="middle" x="986.5" y="-328.8" font-family="Times,serif" font-size="14.00"> 4.21kB</text>
</a>
</g>
</g>
<!-- N21 -->
<g id="node21" class="node">
<title>N21</title>
<g id="a_node21"><a xlink:title="runtime.resetspinning (4.52kB)">
<polygon fill="#edecec" stroke="#b2b1ac" points="1259,-490 1163,-490 1163,-454 1259,-454 1259,-490"/>
<text text-anchor="middle" x="1211" y="-479.1" font-family="Times,serif" font-size="8.00">runtime</text>
<text text-anchor="middle" x="1211" y="-470.1" font-family="Times,serif" font-size="8.00">resetspinning</text>
<text text-anchor="middle" x="1211" y="-461.1" font-family="Times,serif" font-size="8.00">0 of 4.52kB (0.69%)</text>
</a>
</g>
</g>
<!-- N23 -->
<g id="node23" class="node">
<title>N23</title>
<g id="a_node23"><a xlink:title="runtime.wakep (4.52kB)">
<polygon fill="#edecec" stroke="#b2b1ac" points="1257,-396.5 1161,-396.5 1161,-360.5 1257,-360.5 1257,-396.5"/>
<text text-anchor="middle" x="1209" y="-385.6" font-family="Times,serif" font-size="8.00">runtime</text>
<text text-anchor="middle" x="1209" y="-376.6" font-family="Times,serif" font-size="8.00">wakep</text>
<text text-anchor="middle" x="1209" y="-367.6" font-family="Times,serif" font-size="8.00">0 of 4.52kB (0.69%)</text>
</a>
</g>
</g>
<!-- N21&#45;&gt;N23 -->
<g id="edge15" class="edge">
<title>N21&#45;&gt;N23</title>
<g id="a_edge15"><a xlink:title="runtime.resetspinning &#45;&gt; runtime.wakep (4.52kB)">
<path fill="none" stroke="#b2b1ac" d="M1210.62,-453.79C1210.34,-440.63 1209.93,-422.21 1209.6,-407.01"/>
<polygon fill="#b2b1ac" stroke="#b2b1ac" points="1213.09,-406.55 1209.37,-396.63 1206.09,-406.71 1213.09,-406.55"/>
</a>
</g>
<g id="a_edge15&#45;label"><a xlink:title="runtime.resetspinning &#45;&gt; runtime.wakep (4.52kB)">
<text text-anchor="middle" x="1237.5" y="-420.8" font-family="Times,serif" font-size="14.00"> 4.52kB</text>
</a>
</g>
</g>
<!-- N22&#45;&gt;N21 -->
<g id="edge16" class="edge">
<title>N22&#45;&gt;N21</title>
<g id="a_edge16"><a xlink:title="runtime.schedule &#45;&gt; runtime.resetspinning (4.52kB)">
<path fill="none" stroke="#b2b1ac" d="M1211,-563.65C1211,-546.56 1211,-520.22 1211,-500.32"/>
<polygon fill="#b2b1ac" stroke="#b2b1ac" points="1214.5,-500.31 1211,-490.31 1207.5,-500.31 1214.5,-500.31"/>
</a>
</g>
<g id="a_edge16&#45;label"><a xlink:title="runtime.schedule &#45;&gt; runtime.resetspinning (4.52kB)">
<text text-anchor="middle" x="1238.5" y="-523.3" font-family="Times,serif" font-size="14.00"> 4.52kB</text>
</a>
</g>
</g>
<!-- N23&#45;&gt;N6 -->
<g id="edge18" class="edge">
<title>N23&#45;&gt;N6</title>
<g id="a_edge18"><a xlink:title="runtime.wakep &#45;&gt; runtime.startm (4.52kB)">
<path fill="none" stroke="#b2b1ac" d="M1199.8,-360.34C1193.84,-349.77 1185.6,-336.16 1177,-325 1173.63,-320.62 1169.81,-316.19 1165.95,-311.98"/>
<polygon fill="#b2b1ac" stroke="#b2b1ac" points="1168.47,-309.56 1159.05,-304.71 1163.39,-314.38 1168.47,-309.56"/>
</a>
</g>
<g id="a_edge18&#45;label"><a xlink:title="runtime.wakep &#45;&gt; runtime.startm (4.52kB)">
<text text-anchor="middle" x="1213.5" y="-328.8" font-family="Times,serif" font-size="14.00"> 4.52kB</text>
</a>
</g>
</g>
</g>
</g></svg>
